<svg xmlns="http://www.w3.org/2000/svg" width="100%" height="100%"><defs><clipPath id="mask-1"><circle cx="464.62" cy="37.7584" r="100"/><path d="M 264.749 924.89 L 379.976 828.099 L 428.099 743.883 L 360.625 444.903 L 318.628 311.793 L 285.232 345.189 L 408.109 279.464 L 463.199 237.729 L 550.862 88.3785 L 378.378 -12.8616 L 310.801 102.271 L 299.891 110.536 L 164.768 182.811 L 91.3718 256.207 L 167.375 497.097 L 215.901 712.117 L 224.024 697.901 L 136.11 771.749 Z"/></clipPath><clipPath id="mask-2"><circle cx="29.8319" cy="15.9101" r="100"/><path d="M 361.922 652.905 L 469.456 562.35 L 514.863 489.7 L 469.642 296.846 L 431.17 200.667 L 375.073 114.652 L 323.857 63.4357 L 243.385 2.47187 L 70.9217 -75.258 L -11.258 107.078 L 140.615 175.528 L 192.143 214.564 L 218.927 241.348 L 252.83 293.333 L 278.358 357.154 L 301.137 454.3 L 316.544 429.65 L 233.095 499.922 Z"/></clipPath><clipPath id="mask-3"><circle cx="445.068" cy="524.549" r="100"/><path d="M 14.6072 552.543 L 126.192 506.596 L 178.593 521.294 L 305.016 546.754 L 386.519 605.617 L 503.617 443.481 L 386.984 359.246 L 225.407 326.706 L 113.808 295.404 L -61.5428 367.607 Z"/></clipPath><clipPath id="mask-4"><circle cx="919.738" cy="687.227" r="100"/><path d="M 431.199 752.647 L 549.459 733.573 L 585.034 736.114 L 734.984 774.102 L 912.511 786.966 L 926.966 587.489 L 767.016 575.898 L 616.966 537.886 L 540.541 532.427 L 399.353 555.199 Z"/></clipPath><clipPath id="mask-5"><circle cx="576.977" cy="100.452" r="100"/><path d="M 470.592 620.784 L 586.988 524.631 L 615.043 468.521 L 675.525 117.428 L 478.428 83.4748 L 422.957 405.479 L 427.012 397.369 L 343.216 466.592 Z"/></clipPath><clipPath id="mask-6"><circle cx="641.237" cy="235.12" r="100"/><path d="M 473.783 603.961 L 564.315 571.369 L 748.243 617.118 L 838.414 608.92 L 896.713 563.295 L 941.755 497.778 L 878.648 239.04 L 834.81 148.232 L 648.117 135.357 L 634.357 334.883 L 705.19 339.768 L 689.352 306.96 L 726.245 458.222 L 749.287 424.705 L 761.586 415.08 L 763.757 414.882 L 553.685 362.631 L 406.039 415.783 Z"/></clipPath><clipPath id="mask-7"><circle cx="821.058" cy="350.388" r="100"/><path d="M 422.692 347.652 L 529.426 446.176 L 635.267 468.459 L 695.462 477.488 L 840.67 448.446 L 801.446 252.33 L 690.538 274.512 L 670.733 271.541 L 624.574 261.824 L 558.348 200.692 Z"/></clipPath><clipPath id="mask-8"><circle cx="839.182" cy="287.982" r="100"/><path d="M 445.946 198.321 L 529.748 330.01 L 820.2 386.164 L 858.164 189.8 L 652.252 149.99 L 614.679 90.9463 Z"/></clipPath><clipPath id="mask-9"><circle cx="1051.83" cy="36.4295" r="100"/><path d="M 354.147 174.137 L 501.089 153.145 L 582.318 166.247 L 873.245 193.753 L 945.424 182.204 L 1086.4 130.264 L 1017.26 -57.4048 L 894.576 -12.2041 L 866.755 -7.75273 L 607.682 -32.247 L 502.911 -49.1454 L 325.863 -23.8528 Z"/></clipPath><clipPath id="mask-10"><circle cx="464.62" cy="37.7584" r="100"/><path d="M 264.749 924.89 L 379.976 828.099 L 428.099 743.883 L 360.625 444.903 L 318.628 311.793 L 285.232 345.189 L 408.109 279.464 L 463.199 237.729 L 550.862 88.3785 L 378.378 -12.8616 L 310.801 102.271 L 299.891 110.536 L 164.768 182.811 L 91.3718 256.207 L 167.375 497.097 L 215.901 712.117 L 224.024 697.901 L 136.11 771.749 Z"/></clipPath><clipPath id="mask-11"><circle cx="29.8319" cy="15.9101" r="100"/><path d="M 361.922 652.905 L 469.456 562.35 L 514.863 489.7 L 469.642 296.846 L 431.17 200.667 L 375.073 114.652 L 323.857 63.4357 L 243.385 2.47187 L 70.9217 -75.258 L -11.258 107.078 L 140.615 175.528 L 192.143 214.564 L 218.927 241.348 L 252.83 293.333 L 278.358 357.154 L 301.137 454.3 L 316.544 429.65 L 233.095 499.922 Z"/></clipPath><clipPath id="mask-12"><circle cx="445.068" cy="524.549" r="100"/><path d="M 14.6072 552.543 L 126.192 506.596 L 178.593 521.294 L 305.016 546.754 L 386.519 605.617 L 503.617 443.481 L 386.984 359.246 L 225.407 326.706 L 113.808 295.404 L -61.5428 367.607 Z"/></clipPath><clipPath id="mask-13"><circle cx="919.738" cy="687.227" r="100"/><path d="M 431.199 752.647 L 549.459 733.573 L 585.034 736.114 L 734.984 774.102 L 912.511 786.966 L 926.966 587.489 L 767.016 575.898 L 616.966 537.886 L 540.541 532.427 L 399.353 555.199 Z"/></clipPath><clipPath id="mask-14"><circle cx="576.977" cy="100.452" r="100"/><path d="M 470.592 620.784 L 586.988 524.631 L 615.043 468.521 L 675.525 117.428 L 478.428 83.4748 L 422.957 405.479 L 427.012 397.369 L 343.216 466.592 Z"/></clipPath><clipPath id="mask-15"><circle cx="641.237" cy="235.12" r="100"/><path d="M 473.783 603.961 L 564.315 571.369 L 748.243 617.118 L 838.414 608.92 L 896.713 563.295 L 941.755 497.778 L 878.648 239.04 L 834.81 148.232 L 648.117 135.357 L 634.357 334.883 L 705.19 339.768 L 689.352 306.96 L 726.245 458.222 L 749.287 424.705 L 761.586 415.08 L 763.757 414.882 L 553.685 362.631 L 406.039 415.783 Z"/></clipPath><clipPath id="mask-16"><circle cx="821.058" cy="350.388" r="100"/><path d="M 422.692 347.652 L 529.426 446.176 L 635.267 468.459 L 695.462 477.488 L 840.67 448.446 L 801.446 252.33 L 690.538 274.512 L 670.733 271.541 L 624.574 261.824 L 558.348 200.692 Z"/></clipPath><clipPath id="mask-17"><circle cx="839.182" cy="287.982" r="100"/><path d="M 445.946 198.321 L 529.748 330.01 L 820.2 386.164 L 858.164 189.8 L 652.252 149.99 L 614.679 90.9463 Z"/></clipPath><clipPath id="mask-18"><circle cx="1051.83" cy="36.4295" r="100"/><path d="M 354.147 174.137 L 501.089 153.145 L 582.318 166.247 L 873.245 193.753 L 945.424 182.204 L 1086.4 130.264 L 1017.26 -57.4048 L 894.576 -12.2041 L 866.755 -7.75273 L 607.682 -32.247 L 502.911 -49.1454 L 325.863 -23.8528 Z"/></clipPath><clipPath id="mask-19"><circle cx="464.62" cy="37.7584" r="100"/><path d="M 264.749 924.89 L 379.976 828.099 L 428.099 743.883 L 360.625 444.903 L 318.628 311.793 L 285.232 345.189 L 408.109 279.464 L 463.199 237.729 L 550.862 88.3785 L 378.378 -12.8616 L 310.801 102.271 L 299.891 110.536 L 164.768 182.811 L 91.3718 256.207 L 167.375 497.097 L 215.901 712.117 L 224.024 697.901 L 136.11 771.749 Z"/></clipPath><clipPath id="mask-20"><circle cx="29.8319" cy="15.9101" r="100"/><path d="M 361.922 652.905 L 469.456 562.35 L 514.863 489.7 L 469.642 296.846 L 431.17 200.667 L 375.073 114.652 L 323.857 63.4357 L 243.385 2.47187 L 70.9217 -75.258 L -11.258 107.078 L 140.615 175.528 L 192.143 214.564 L 218.927 241.348 L 252.83 293.333 L 278.358 357.154 L 301.137 454.3 L 316.544 429.65 L 233.095 499.922 Z"/></clipPath><clipPath id="mask-21"><circle cx="445.068" cy="524.549" r="100"/><path d="M 14.6072 552.543 L 126.192 506.596 L 178.593 521.294 L 305.016 546.754 L 386.519 605.617 L 503.617 443.481 L 386.984 359.246 L 225.407 326.706 L 113.808 295.404 L -61.5428 367.607 Z"/></clipPath><clipPath id="mask-22"><circle cx="919.738" cy="687.227" r="100"/><path d="M 431.199 752.647 L 549.459 733.573 L 585.034 736.114 L 734.984 774.102 L 912.511 786.966 L 926.966 587.489 L 767.016 575.898 L 616.966 537.886 L 540.541 532.427 L 399.353 555.199 Z"/></clipPath><clipPath id="mask-23"><circle cx="576.977" cy="100.452" r="100"/><path d="M 470.592 620.784 L 586.988 524.631 L 615.043 468.521 L 675.525 117.428 L 478.428 83.4748 L 422.957 405.479 L 427.012 397.369 L 343.216 466.592 Z"/></clipPath><clipPath id="mask-24"><circle cx="641.237" cy="235.12" r="100"/><path d="M 473.783 603.961 L 564.315 571.369 L 748.243 617.118 L 838.414 608.92 L 896.713 563.295 L 941.755 497.778 L 878.648 239.04 L 834.81 148.232 L 648.117 135.357 L 634.357 334.883 L 705.19 339.768 L 689.352 306.96 L 726.245 458.222 L 749.287 424.705 L 761.586 415.08 L 763.757 414.882 L 553.685 362.631 L 406.039 415.783 Z"/></clipPath><clipPath id="mask-25"><circle cx="821.058" cy="350.388" r="100"/><path d="M 422.692 347.652 L 529.426 446.176 L 635.267 468.459 L 695.462 477.488 L 840.67 448.446 L 801.446 252.33 L 690.538 274.512 L 670.733 271.541 L 624.574 261.824 L 558.348 200.692 Z"/></clipPath><clipPath id="mask-26"><circle cx="839.182" cy="287.982" r="100"/><path d="M 445.946 198.321 L 529.748 330.01 L 820.2 386.164 L 858.164 189.8 L 652.252 149.99 L 614.679 90.9463 Z"/></clipPath><clipPath id="mask-27"><circle cx="1051.83" cy="36.4295" r="100"/><path d="M 354.147 174.137 L 501.089 153.145 L 582.318 166.247 L 873.245 193.753 L 945.424 182.204 L 1086.4 130.264 L 1017.26 -57.4048 L 894.576 -12.2041 L 866.755 -7.75273 L 607.682 -32.247 L 502.911 -49.1454 L 325.863 -23.8528 Z"/></clipPath></defs><g transform="translate(0 87.8906) scale(0.0976563, -0.0976563)"><path style="opacity: 1;" clip-path="url(#mask-1)" fill="#ddd" stroke="#ddd" stroke-width="2" d="M 283 458 L 333 634 Q 343 683 364 708 Q 377 730 370 744 Q 357 763 308 793 Q 287 806 270 798 Q 257 791 266 774 Q 297 725 235 450 L 224 404 Q 214 352 183 300 Q 173 275 196 258 Q 245 236 287 203 L 325 176 Q 353 155 387 125 Q 405 112 415 110 Q 424 111 430 123 Q 436 135 428 167 Q 419 201 357 227 L 313 246 Q 285 258 249 272 Q 228 279 229 300 Q 250 358 269 416 L 283 458 Z"/><path style="opacity: 1;" clip-path="url(#mask-2)" fill="#ddd" stroke="#ddd" stroke-width="2" d="M 287 203 Q 236 140 117 64 Q 104 55 115 52 Q 202 45 311 159 Q 318 168 325 176 L 357 227 Q 358 228 359 228 Q 390 280 405 342 Q 433 444 447 466 Q 457 482 442 493 Q 400 532 371 525 Q 358 521 362 506 Q 369 490 370 473 L 369 445 Q 357 328 313 246 L 287 203 Z"/><path style="opacity: 1;" clip-path="url(#mask-3)" fill="#ddd" stroke="#ddd" stroke-width="2" d="M 370 473 Q 327 466 283 458 L 235 450 Q 97 432 72 435 Q 59 435 57 426 Q 53 414 61 405 Q 80 387 109 365 Q 118 361 130 367 Q 173 391 219 403 Q 220 404 224 404 L 269 416 Q 312 429 357 442 Q 361 443 369 445 L 370 473 Z"/><path style="opacity: 1;" clip-path="url(#mask-4)" fill="#ddd" stroke="#ddd" stroke-width="2" d="M 522 650 Q 482 643 511 624 Q 554 600 633 618 Q 706 636 784 653 Q 821 663 828 668 Q 838 677 832 687 Q 823 700 790 707 Q 766 711 658 677 Q 579 658 522 650 Z"/><path style="opacity: 1;" clip-path="url(#mask-5)" fill="#ddd" stroke="#ddd" stroke-width="2" d="M 527 480 Q 517 484 493 489 Q 480 493 477 488 Q 470 481 478 465 Q 511 389 526 263 Q 527 226 548 200 Q 566 178 571 193 Q 575 205 576 222 L 575 248 Q 572 275 562 335 L 558 363 Q 548 421 547 444 L 527 480 Z"/><path style="opacity: 1;" clip-path="url(#mask-6)" fill="#ddd" stroke="#ddd" stroke-width="2" d="M 728 244 Q 750 210 769 201 Q 779 192 796 215 Q 814 245 847 405 Q 856 439 881 466 Q 894 479 882 495 Q 864 513 818 540 Q 796 550 740 532 Q 734 532 606 500 Q 563 488 527 480 L 547 444 Q 619 466 743 492 Q 768 496 779 489 Q 795 476 791 453 Q 763 288 747 272 L 728 244 Z"/><path style="opacity: 1;" clip-path="url(#mask-7)" fill="#ddd" stroke="#ddd" stroke-width="2" d="M 562 335 Q 563 335 566 335 Q 654 351 719 360 Q 741 364 733 376 Q 723 391 697 395 Q 670 398 558 363 L 562 335 Z"/><path style="opacity: 1;" clip-path="url(#mask-8)" fill="#ddd" stroke="#ddd" stroke-width="2" d="M 576 222 Q 663 234 728 244 L 747 272 Q 740 276 729 279 Q 695 283 575 248 L 576 222 Z"/><path style="opacity: 1;" clip-path="url(#mask-9)" fill="#ddd" stroke="#ddd" stroke-width="2" d="M 442 72 Q 420 71 436 51 Q 452 35 471 29 Q 495 22 512 27 Q 630 55 913 56 Q 926 56 943 55 Q 965 54 971 64 Q 977 77 959 92 Q 901 137 860 128 Q 737 106 442 72 Z"/><path style="opacity: 1;" clip-path="url(#mask-10)" fill="#dc4e41" stroke="#dc4e41" stroke-width="2" d="M 283 458 L 333 634 Q 343 683 364 708 Q 377 730 370 744 Q 357 763 308 793 Q 287 806 270 798 Q 257 791 266 774 Q 297 725 235 450 L 224 404 Q 214 352 183 300 Q 173 275 196 258 Q 245 236 287 203 L 325 176 Q 353 155 387 125 Q 405 112 415 110 Q 424 111 430 123 Q 436 135 428 167 Q 419 201 357 227 L 313 246 Q 285 258 249 272 Q 228 279 229 300 Q 250 358 269 416 L 283 458 Z"/><path style="opacity: 1;" clip-path="url(#mask-11)" fill="#dc4e41" stroke="#dc4e41" stroke-width="2" d="M 287 203 Q 236 140 117 64 Q 104 55 115 52 Q 202 45 311 159 Q 318 168 325 176 L 357 227 Q 358 228 359 228 Q 390 280 405 342 Q 433 444 447 466 Q 457 482 442 493 Q 400 532 371 525 Q 358 521 362 506 Q 369 490 370 473 L 369 445 Q 357 328 313 246 L 287 203 Z"/><path style="opacity: 1;" clip-path="url(#mask-12)" fill="#dc4e41" stroke="#dc4e41" stroke-width="2" d="M 370 473 Q 327 466 283 458 L 235 450 Q 97 432 72 435 Q 59 435 57 426 Q 53 414 61 405 Q 80 387 109 365 Q 118 361 130 367 Q 173 391 219 403 Q 220 404 224 404 L 269 416 Q 312 429 357 442 Q 361 443 369 445 L 370 473 Z"/><path style="opacity: 1;" clip-path="url(#mask-13)" fill="#2262ad" stroke="#2262ad" stroke-width="2" d="M 522 650 Q 482 643 511 624 Q 554 600 633 618 Q 706 636 784 653 Q 821 663 828 668 Q 838 677 832 687 Q 823 700 790 707 Q 766 711 658 677 Q 579 658 522 650 Z"/><path style="opacity: 1;" clip-path="url(#mask-14)" fill="#2262ad" stroke="#2262ad" stroke-width="2" d="M 527 480 Q 517 484 493 489 Q 480 493 477 488 Q 470 481 478 465 Q 511 389 526 263 Q 527 226 548 200 Q 566 178 571 193 Q 575 205 576 222 L 575 248 Q 572 275 562 335 L 558 363 Q 548 421 547 444 L 527 480 Z"/><path style="opacity: 1;" clip-path="url(#mask-15)" fill="#2262ad" stroke="#2262ad" stroke-width="2" d="M 728 244 Q 750 210 769 201 Q 779 192 796 215 Q 814 245 847 405 Q 856 439 881 466 Q 894 479 882 495 Q 864 513 818 540 Q 796 550 740 532 Q 734 532 606 500 Q 563 488 527 480 L 547 444 Q 619 466 743 492 Q 768 496 779 489 Q 795 476 791 453 Q 763 288 747 272 L 728 244 Z"/><path style="opacity: 0;" clip-path="url(#mask-16)" fill="#2262ad" stroke="#2262ad" stroke-width="2" d="M 562 335 Q 563 335 566 335 Q 654 351 719 360 Q 741 364 733 376 Q 723 391 697 395 Q 670 398 558 363 L 562 335 Z"/><path style="opacity: 0;" clip-path="url(#mask-17)" fill="#2262ad" stroke="#2262ad" stroke-width="2" d="M 576 222 Q 663 234 728 244 L 747 272 Q 740 276 729 279 Q 695 283 575 248 L 576 222 Z"/><path style="opacity: 0;" clip-path="url(#mask-18)" fill="#2262ad" stroke="#2262ad" stroke-width="2" d="M 442 72 Q 420 71 436 51 Q 452 35 471 29 Q 495 22 512 27 Q 630 55 913 56 Q 926 56 943 55 Q 965 54 971 64 Q 977 77 959 92 Q 901 137 860 128 Q 737 106 442 72 Z"/><path style="opacity: 0;" clip-path="url(#mask-19)" fill="#aaf" stroke="#aaf" stroke-width="2" d="M 283 458 L 333 634 Q 343 683 364 708 Q 377 730 370 744 Q 357 763 308 793 Q 287 806 270 798 Q 257 791 266 774 Q 297 725 235 450 L 224 404 Q 214 352 183 300 Q 173 275 196 258 Q 245 236 287 203 L 325 176 Q 353 155 387 125 Q 405 112 415 110 Q 424 111 430 123 Q 436 135 428 167 Q 419 201 357 227 L 313 246 Q 285 258 249 272 Q 228 279 229 300 Q 250 358 269 416 L 283 458 Z"/><path style="opacity: 0;" clip-path="url(#mask-20)" fill="#aaf" stroke="#aaf" stroke-width="2" d="M 287 203 Q 236 140 117 64 Q 104 55 115 52 Q 202 45 311 159 Q 318 168 325 176 L 357 227 Q 358 228 359 228 Q 390 280 405 342 Q 433 444 447 466 Q 457 482 442 493 Q 400 532 371 525 Q 358 521 362 506 Q 369 490 370 473 L 369 445 Q 357 328 313 246 L 287 203 Z"/><path style="opacity: 0;" clip-path="url(#mask-21)" fill="#aaf" stroke="#aaf" stroke-width="2" d="M 370 473 Q 327 466 283 458 L 235 450 Q 97 432 72 435 Q 59 435 57 426 Q 53 414 61 405 Q 80 387 109 365 Q 118 361 130 367 Q 173 391 219 403 Q 220 404 224 404 L 269 416 Q 312 429 357 442 Q 361 443 369 445 L 370 473 Z"/><path style="opacity: 0;" clip-path="url(#mask-22)" fill="#aaf" stroke="#aaf" stroke-width="2" d="M 522 650 Q 482 643 511 624 Q 554 600 633 618 Q 706 636 784 653 Q 821 663 828 668 Q 838 677 832 687 Q 823 700 790 707 Q 766 711 658 677 Q 579 658 522 650 Z"/><path style="opacity: 0;" clip-path="url(#mask-23)" fill="#aaf" stroke="#aaf" stroke-width="2" d="M 527 480 Q 517 484 493 489 Q 480 493 477 488 Q 470 481 478 465 Q 511 389 526 263 Q 527 226 548 200 Q 566 178 571 193 Q 575 205 576 222 L 575 248 Q 572 275 562 335 L 558 363 Q 548 421 547 444 L 527 480 Z"/><path style="opacity: 0;" clip-path="url(#mask-24)" fill="#aaf" stroke="#aaf" stroke-width="2" d="M 728 244 Q 750 210 769 201 Q 779 192 796 215 Q 814 245 847 405 Q 856 439 881 466 Q 894 479 882 495 Q 864 513 818 540 Q 796 550 740 532 Q 734 532 606 500 Q 563 488 527 480 L 547 444 Q 619 466 743 492 Q 768 496 779 489 Q 795 476 791 453 Q 763 288 747 272 L 728 244 Z"/><path style="opacity: 0;" clip-path="url(#mask-25)" fill="#aaf" stroke="#aaf" stroke-width="2" d="M 562 335 Q 563 335 566 335 Q 654 351 719 360 Q 741 364 733 376 Q 723 391 697 395 Q 670 398 558 363 L 562 335 Z"/><path style="opacity: 0;" clip-path="url(#mask-26)" fill="#aaf" stroke="#aaf" stroke-width="2" d="M 576 222 Q 663 234 728 244 L 747 272 Q 740 276 729 279 Q 695 283 575 248 L 576 222 Z"/><path style="opacity: 0;" clip-path="url(#mask-27)" fill="#aaf" stroke="#aaf" stroke-width="2" d="M 442 72 Q 420 71 436 51 Q 452 35 471 29 Q 495 22 512 27 Q 630 55 913 56 Q 926 56 943 55 Q 965 54 971 64 Q 977 77 959 92 Q 901 137 860 128 Q 737 106 442 72 Z"/></g></svg>